<svg height="512pt" viewBox="0 0 512 512" width="512pt" xmlns="http://www.w3.org/2000/svg"><path d="m256 512c-141.160156 0-256-114.839844-256-256s114.839844-256 256-256 256 114.839844 256 256-114.839844 256-256 256zm0-494.933594c-131.746094 0-238.933594 107.1875-238.933594 238.933594s107.1875 238.933594 238.933594 238.933594 238.933594-107.1875 238.933594-238.933594-107.1875-238.933594-238.933594-238.933594zm0 0"/><path d="m256 290.132812c-18.824219 0-34.132812-15.308593-34.132812-34.132812s15.308593-34.132812 34.132812-34.132812 34.132812 15.308593 34.132812 34.132812-15.316406 34.132812-34.132812 34.132812zm0-51.199218c-9.414062 0-17.066406 7.652344-17.066406 17.066406s7.652344 17.066406 17.066406 17.066406 17.066406-7.652344 17.066406-17.066406-7.652344-17.066406-17.066406-17.066406zm0 0"/><path d="m162.132812 290.132812c-18.824218 0-34.132812-15.308593-34.132812-34.132812s15.308594-34.132812 34.132812-34.132812c18.824219 0 34.132813 15.308593 34.132813 34.132812s-15.316406 34.132812-34.132813 34.132812zm0-51.199218c-9.410156 0-17.066406 7.652344-17.066406 17.066406s7.65625 17.066406 17.066406 17.066406c9.414063 0 17.066407-7.652344 17.066407-17.066406s-7.652344-17.066406-17.066407-17.066406zm0 0"/><path d="m349.867188 290.132812c-18.824219 0-34.132813-15.308593-34.132813-34.132812s15.308594-34.132812 34.132813-34.132812c18.824218 0 34.132812 15.308593 34.132812 34.132812s-15.316406 34.132812-34.132812 34.132812zm0-51.199218c-9.414063 0-17.066407 7.652344-17.066407 17.066406s7.652344 17.066406 17.066407 17.066406c9.410156 0 17.066406-7.652344 17.066406-17.066406s-7.65625-17.066406-17.066406-17.066406zm0 0"/></svg>